<svg preserveAspectRatio="none" width="100%" height="100%" overflow="visible" style="display: block;" viewBox="0 0 122 132" fill="none" xmlns="http://www.w3.org/2000/svg">
<g id="Container" opacity="0.2">
<path id="Icon" d="M55.75 97.75L38 80L45.25 72.75L55.75 83.25L76.75 62.25L84 69.5L55.75 97.75V97.75M26 116C23.25 116 20.8958 115.021 18.9375 113.062C16.9792 111.104 16 108.75 16 106V36C16 33.25 16.9792 30.8958 18.9375 28.9375C20.8958 26.9792 23.25 26 26 26H31V16H41V26H81V16H91V26H96C98.75 26 101.104 26.9792 103.062 28.9375C105.021 30.8958 106 33.25 106 36V106C106 108.75 105.021 111.104 103.062 113.062C101.104 115.021 98.75 116 96 116H26V116M26 106H96V106V106V56H26V106V106V106V106M26 46H96V36V36V36H26V36V36V46V46M26 46V36V36V36V36V36V36V46V46V46" fill="var(--fill-0, white)"/>
</g>
</svg>
